<svg xmlns="http://www.w3.org/2000/svg" xmlns:xlink="http://www.w3.org/1999/xlink" width="87" height="87" viewBox="0 0 87 87">
  <defs>
    <clipPath id="clip-path">
      <rect id="사각형_573" data-name="사각형 573" width="87" height="87" transform="translate(942 1225)" fill="#fbdaaf" stroke="#707070" stroke-width="1"/>
    </clipPath>
  </defs>
  <g id="마스크_그룹_19" data-name="마스크 그룹 19" transform="translate(-942 -1225)" clip-path="url(#clip-path)">
    <path id="deco1" d="M86.136,56.184c-.478,6.809-.826,11.908-1.2,17.008-.652,9.2-5.635,15.878-12.835,20.963a157.062,157.062,0,0,1-20.354,12.068c-8.837,4.4-17.558,3.854-25.975-1.043C15.9,99.442,7.371,92.024,4.531,80.609.823,65.6,2.648,51.258,13.325,39.046a13.141,13.141,0,0,1,4.317-2.941,183.376,183.376,0,0,0,16.109-8.866C40.908,22.719,48.818,21,57.263,23.11a11.955,11.955,0,0,1,2.912.9c8.431,4.752,16.776,9.561,21.7,18.5C84.557,47.332,86.744,52.186,86.136,56.184Z" transform="translate(940.993 1202.787)" fill="#fbdaaf"/>
  </g>
</svg>
