<svg xmlns="http://www.w3.org/2000/svg" xmlns:xlink="http://www.w3.org/1999/xlink" width="112" height="112" viewBox="0 0 112 112">
  <defs>
    <clipPath id="clip-path">
      <rect id="사각형_570" data-name="사각형 570" width="112" height="112" transform="translate(942 1225)" fill="#c3ecae" stroke="#707070" stroke-width="1"/>
    </clipPath>
  </defs>
  <g id="마스크_그룹_16" data-name="마스크 그룹 16" transform="translate(-942 -1225)" clip-path="url(#clip-path)">
    <path id="deco1" d="M110.09,65.946c-.615,8.765-1.063,15.33-1.548,21.895-.839,11.843-7.255,20.44-16.524,26.986a202.2,202.2,0,0,1-26.2,15.535c-11.376,5.67-22.6,4.961-33.439-1.343-12.7-7.385-23.685-16.934-27.341-31.63C.261,78.068,2.611,59.6,16.356,43.883A16.917,16.917,0,0,1,21.913,40.1,236.072,236.072,0,0,0,42.652,28.683c9.213-5.819,19.4-8.038,30.269-5.315a15.39,15.39,0,0,1,3.749,1.156c10.854,6.117,21.6,12.309,27.937,23.816C108.057,54.551,110.873,60.8,110.09,65.946Z" transform="translate(941.501 1202.787)" fill="#c3ecae"/>
  </g>
</svg>
