<svg xmlns="http://www.w3.org/2000/svg" width="43.72" height="48.817" viewBox="0 0 43.72 48.817">
  <g id="tbg_email_icon" transform="translate(1.043 1.043)">
    <rect id="사각형_594" data-name="사각형 594" width="41.634" height="28.081" transform="translate(0 18.649)" fill="#fff" stroke="#1c1738" stroke-linecap="round" stroke-linejoin="round" stroke-miterlimit="10" stroke-width="2.086"/>
    <path id="패스_180" data-name="패스 180" d="M610.864,902.831l-10.3-9.324-10.409,9.324-10.409,9.324,10.409,9.216,10.409,9.324,10.3-9.324,10.409-9.216Z" transform="translate(-579.746 -893.506)" fill="#1c1738" stroke="#1c1738" stroke-linecap="round" stroke-linejoin="round" stroke-miterlimit="10" stroke-width="2.086"/>
    <path id="패스_181" data-name="패스 181" d="M600.564,947.538l10.3,9.324,10.409,9.324H579.746l10.409-9.324Z" transform="translate(-579.746 -919.456)" fill="#fff" stroke="#1c1738" stroke-linecap="round" stroke-linejoin="round" stroke-miterlimit="10" stroke-width="2.086"/>
    <g id="그룹_243" data-name="그룹 243" transform="translate(11.927 9.107)">
      <path id="패스_182" data-name="패스 182" d="M616.247,912.331a9.083,9.083,0,0,1,3.144,2.927,8.2,8.2,0,0,1,1.084,4.229,6.33,6.33,0,0,1-.976,3.795,3,3,0,0,1-2.711,1.409,2.294,2.294,0,0,1-1.518-.434,1.929,1.929,0,0,1-.867-1.193,3.8,3.8,0,0,1-3.361,1.626,4.009,4.009,0,0,1-2.277-.651,5.018,5.018,0,0,1-1.626-1.735,4.7,4.7,0,0,1-.542-2.494,6.432,6.432,0,0,1,.542-2.494,5.019,5.019,0,0,1,1.626-1.735,4.267,4.267,0,0,1,2.277-.651,5.064,5.064,0,0,1,1.843.325,2.96,2.96,0,0,1,1.3.976v-1.193h2.06v6.4a1.326,1.326,0,0,0,.325.976.985.985,0,0,0,.759.325c.542,0,.867-.325,1.193-.867a6.876,6.876,0,0,0,.434-2.494,7.924,7.924,0,0,0-.867-3.578,6.893,6.893,0,0,0-2.6-2.385,8.735,8.735,0,0,0-7.59,0,7.176,7.176,0,0,0-2.6,2.494,6.88,6.88,0,0,0-.867,3.686,8.041,8.041,0,0,0,.867,3.686,6.137,6.137,0,0,0,2.494,2.494,7.273,7.273,0,0,0,3.795.867,10.686,10.686,0,0,0,1.843-.217,4.789,4.789,0,0,0,1.735-.651l.542,1.518a5.184,5.184,0,0,1-1.952.651,16.3,16.3,0,0,1-2.168.217,9.262,9.262,0,0,1-4.662-1.084,8.451,8.451,0,0,1-3.144-3.036,9.655,9.655,0,0,1,0-8.891,8.45,8.45,0,0,1,3.144-3.036,9.543,9.543,0,0,1,4.662-1.084A19.543,19.543,0,0,1,616.247,912.331Zm-2.819,9.866a3.477,3.477,0,0,0,0-4.337,3.175,3.175,0,0,0-4.12,0,3.477,3.477,0,0,0,0,4.337,2.7,2.7,0,0,0,2.06.759A2.55,2.55,0,0,0,613.428,922.2Z" transform="translate(-602.694 -911.03)" fill="#fff"/>
    </g>
  </g>
</svg>
