<svg xmlns="http://www.w3.org/2000/svg" xmlns:xlink="http://www.w3.org/1999/xlink" width="379" height="379" viewBox="0 0 379 379">
  <defs>
    <clipPath id="clip-path">
      <rect id="사각형_576" data-name="사각형 576" width="379" height="379" transform="translate(751.271 3207.271)" fill="#fff"/>
    </clipPath>
  </defs>
  <g id="마스크_그룹_20" data-name="마스크 그룹 20" transform="translate(-751.271 -3207.271)" clip-path="url(#clip-path)">
    <g id="tbg_slogan_icon" transform="translate(751.516 3207.473)">
      <path id="패스_124" data-name="패스 124" d="M77.1,385.339l-.427,4.955,5.723.427a26.809,26.809,0,0,0-.171-5.211H84.1a26.788,26.788,0,0,1,0,6.407l-.085,1.2-9.311-.769.6-7.176Zm8.286-8.286-.6,7.517-9.311-.769.6-7.346,1.794.171-.427,5.125,5.809.513.427-5.3Zm7.176-.854-1.538,19.135-1.794-.171.683-8.371-4.271-.342.171-2.136,4.271.342.683-8.542Z" transform="translate(-73.425 -210.478)" fill="#fff"/>
      <path id="패스_125" data-name="패스 125" d="M83.3,362.817l1.2-5.382-5.211-1.2L79.8,354.1l13.839,3.161-2.221,9.653-13.839-3.161.513-2.136Zm3.929-12.728L88,346.843l1.794.427-.769,3.246L99.7,352.908l-.513,2.136-20.416-4.613.513-2.136Zm4.186,8.884-5.125-1.2-1.2,5.382,5.125,1.2Z" transform="translate(-73.732 -207.347)" fill="#fff"/>
      <path id="패스_126" data-name="패스 126" d="M99.429,340.107l-2.136.427c-.513-6.15-3.075-9.995-7.517-12.13l-2.734,7.261-1.623-.6,3.5-9.311C94.645,327.892,98.745,332.163,99.429,340.107Zm9.226-13.668-.769,2.136-19.647-7.432.769-2.136Z" transform="translate(-74.571 -204.37)" fill="#fff"/>
      <path id="패스_127" data-name="패스 127" d="M114.166,294.369l-5.125,8.2-8.03-4.955,5.125-8.2ZM108.7,299.75l2.819-4.442-4.955-3.075-2.819,4.442Zm4.1-13.326,1.623-2.563,1.623,1.025-1.623,2.563,5.467,3.417-1.2,1.879L106.905,285.4l1.2-1.879Zm12.3,5.809,1.025,1.708c-2.136,2.392-4.869,3.844-7.432,3.759,1.2,2.306,1.111,5.382-.085,8.371l-1.965-.171c1.538-3.673,1.281-7.346-1.111-8.8l-.513-.342,1.2-1.879.513.342C119.035,296.675,122.452,295.308,125.1,292.233Z" transform="translate(-76.238 -200.574)" fill="#fff"/>
      <path id="패스_128" data-name="패스 128" d="M132.6,264.248c2.734,2.306,2.306,6.321-.513,9.653-2.819,3.417-6.748,4.442-9.4,2.136-2.734-2.306-2.306-6.321.513-9.653C125.942,263.052,129.871,262.027,132.6,264.248ZM123.977,274.5c1.879,1.623,4.613.769,6.663-1.708s2.392-5.3.513-6.834-4.613-.769-6.663,1.708C122.439,270.056,122.183,272.961,123.977,274.5Zm18.366-4.527-12.386,14.693-1.452-1.2,12.3-14.693Z" transform="translate(-78.361 -198.386)" fill="#fff"/>
      <path id="패스_129" data-name="패스 129" d="M162.044,251.389,147.778,264.2l-1.281-1.367,6.321-5.638-2.477-2.734-4.527,4.1-4.442-4.955,9.14-8.2-1.965-2.221-9.226,8.2-1.2-1.367,10.849-9.738,4.357,4.869-9.14,8.2,2.05,2.306,9.482-8.542,1.2,1.367-4.955,4.442,2.477,2.734,6.321-5.723Z" transform="translate(-80.208 -195.949)" fill="#fff"/>
      <path id="패스_130" data-name="패스 130" d="M188.818,224.082l.085,2.05a10.89,10.89,0,0,1-9.653-.854,11.215,11.215,0,0,1-3.844,8.884l-1.794-1.025c3.075-2.648,4.613-7.176,2.9-9.995l-.854-1.367,1.965-1.2.854,1.367C180.276,224.765,185.06,225.619,188.818,224.082Zm4.955,6.663-16.4,9.824-.94-1.538,7.176-4.271-2.563-4.271,1.879-1.111,2.563,4.271,7.346-4.357Z" transform="translate(-84.004 -193.842)" fill="#fff"/>
      <path id="패스_131" data-name="패스 131" d="M216.071,214.272,198.388,221.7l-.683-1.623,7.774-3.246-.683-1.708-5.467,2.306L196,209.488l13.155-5.553.683,1.623-11.105,4.7.683,1.538,10.592-4.442.683,1.538L200.1,213.332l.683,1.623,11.276-4.7.683,1.623-5.809,2.392.683,1.708,7.774-3.246Zm-.342,5.3c.854,2.05-1.11,4.1-5.382,5.894s-7.176,1.794-8.03-.256,1.111-4.186,5.382-5.98C212.056,217.432,214.96,217.6,215.729,219.568Zm-11.276,4.784c.427,1.025,2.306.854,5.3-.427,2.99-1.2,4.357-2.477,3.929-3.5s-2.306-.94-5.3.342S204.026,223.326,204.453,224.352Z" transform="translate(-86.398 -192.062)" fill="#fff"/>
      <path id="패스_132" data-name="패스 132" d="M234.2,200.934l-12.045,3.161-.427-1.794,5.04-1.281-.769-2.9,2.136-.6.769,2.9,4.869-1.281Zm.769,6.492a4.937,4.937,0,0,1-3.844,6.065c-2.9.769-5.553-.6-6.236-3.417a4.854,4.854,0,0,1,3.844-5.98A4.719,4.719,0,0,1,234.968,207.426Zm-8.03,2.05a2.856,2.856,0,0,0,3.759,2.136,3.006,3.006,0,1,0-3.759-2.136Zm12.045-6.236,3.246-.854.427,1.794-3.246.854,2.648,10.251-2.136.513-5.3-20.245,2.136-.513Z" transform="translate(-89.15 -191.11)" fill="#fff"/>
      <path id="패스_133" data-name="패스 133" d="M261.193,195l-7.517.854,1.2,10.08a52.3,52.3,0,0,0,8.969-1.708l.513,1.794a51.742,51.742,0,0,1-9.824,1.794l-1.708.171-1.538-13.668,9.738-1.111Zm6.065,3.673,3.332-.427.171,1.794-3.332.427,1.281,11.02-2.221.256L264.1,190.9l2.221-.256Z" transform="translate(-92.312 -190.639)" fill="#fff"/>
      <path id="패스_134" data-name="패스 134" d="M308.968,209.938,289.833,208.4l.171-1.794,8.371.683.342-4.271,2.136.171-.342,4.271,8.542.683Zm-9.14-15.376-4.955-.427-.427,5.723a26.809,26.809,0,0,0,5.211-.171v1.879a26.789,26.789,0,0,1-6.407,0l-1.2-.085.769-9.311,7.176.6Zm8.2,8.2-7.517-.6.769-9.311,7.346.6-.171,1.794-5.125-.427-.513,5.809,5.3.427Z" transform="translate(-96.435 -190.803)" fill="#fff"/>
      <path id="패스_135" data-name="패스 135" d="M322.247,200.677l5.382,1.2,1.2-5.211,2.136.513-3.075,13.839-9.738-2.136,3.075-13.839,2.136.513Zm3.844,8.115,1.111-5.125-5.382-1.2L320.71,207.6Zm8.884-4.186,3.246.769-.427,1.794-3.246-.769-2.392,10.678-2.136-.513,4.613-20.416,2.136.513Z" transform="translate(-99.463 -191.11)" fill="#fff"/>
      <path id="패스_136" data-name="패스 136" d="M344.783,216.8l-.427-2.136c6.15-.513,9.995-3.075,12.13-7.517l-7.261-2.734.6-1.623,9.311,3.5C357,212.013,352.642,216.028,344.783,216.8Zm13.668,9.14-2.136-.769,7.346-19.647,2.136.769Z" transform="translate(-102.267 -191.939)" fill="#fff"/>
      <path id="패스_137" data-name="패스 137" d="M392.535,242.373l-1.708,1.025c-2.392-2.136-3.844-4.869-3.759-7.432-2.306,1.2-5.382,1.111-8.371-.085l.171-1.965c3.673,1.538,7.346,1.281,8.8-1.111l.342-.513,1.879,1.2-.342.513C388.093,236.308,389.46,239.725,392.535,242.373ZM390.4,231.439l-8.2-5.125,4.955-8.03,8.2,5.125Zm-5.382-5.467,4.442,2.819,3.075-4.955-4.442-2.819Zm13.326,4.1,2.563,1.623-1.025,1.623-2.563-1.623-3.417,5.467-1.879-1.2,7.346-11.788,1.879,1.2Z" transform="translate(-105.94 -193.596)" fill="#fff"/>
      <path id="패스_138" data-name="패스 138" d="M414.911,259.52l-14.693-12.3,1.2-1.452,14.693,12.3Zm5.723-9.738c-2.306,2.734-6.321,2.392-9.653-.513-3.417-2.819-4.442-6.748-2.136-9.4,2.306-2.734,6.321-2.306,9.653.513S422.941,247.048,420.635,249.781Zm-10.251-8.542c-1.623,1.879-.769,4.613,1.708,6.663s5.3,2.392,6.834.513.769-4.613-1.708-6.663C414.826,239.616,412.007,239.36,410.384,241.239Z" transform="translate(-108.242 -195.708)" fill="#fff"/>
      <path id="패스_139" data-name="패스 139" d="M433.311,279.22,420.5,264.955l1.367-1.281,5.638,6.236,2.734-2.477-4.1-4.527,4.955-4.442,8.2,9.14,2.221-1.965-8.286-9.14,1.367-1.2,9.738,10.849-4.869,4.357-8.2-9.14-2.306,2.05L437.5,272.9l-1.281,1.281-4.442-4.955-2.734,2.477,5.723,6.321Z" transform="translate(-110.411 -197.556)" fill="#fff"/>
      <path id="패스_140" data-name="패스 140" d="M454.426,311.045,444.6,294.559l1.538-.94,4.271,7.176,4.271-2.563,1.111,1.879-4.271,2.563,4.442,7.346Zm6.663-4.955-2.05.085a11.166,11.166,0,0,1,.769-9.653,11.216,11.216,0,0,1-8.884-3.844l1.025-1.794c2.648,3.075,7.176,4.613,9.995,2.9l1.367-.854,1.2,1.965-1.367.854C460.405,297.548,459.637,302.247,461.089,306.091Z" transform="translate(-112.989 -201.362)" fill="#fff"/>
      <path id="패스_141" data-name="패스 141" d="M465.261,332.991c-2.05.854-4.1-1.111-5.894-5.382s-1.794-7.176.256-8.03,4.186,1.111,5.98,5.382S467.311,332.137,465.261,332.991Zm-4.7-11.361c-1.025.427-.854,2.306.427,5.3,1.2,2.99,2.477,4.357,3.5,3.929s.94-2.306-.342-5.3C462.784,322.569,461.588,321.2,460.563,321.63Zm10.08,11.618-7.432-17.683,1.623-.683,3.246,7.774,1.708-.683-2.306-5.467,7.944-3.332,5.553,13.155-1.623.683-4.7-11.105-1.538.683,4.442,10.592-1.538.683-4.442-10.592-1.623.683,4.7,11.276-1.623.683-2.392-5.809-1.708.683,3.246,7.773Z" transform="translate(-114.427 -203.746)" fill="#fff"/>
      <path id="패스_142" data-name="패스 142" d="M481.924,356.159l.854,3.246-1.794.427-.854-3.246-10.251,2.734-.6-2.136,20.245-5.3.6,2.136Zm-4.186-4.015a5.265,5.265,0,1,1,3.417-6.321C481.924,348.813,480.557,351.376,477.738,352.145Zm-2.05-8.03a2.856,2.856,0,0,0-2.136,3.759,3.006,3.006,0,1,0,2.136-3.759Zm8.542,7.261-3.161-12.045,1.794-.427,1.281,5.04,2.9-.769.6,2.136-2.9.769,1.281,4.869Z" transform="translate(-115.629 -206.498)" fill="#fff"/>
      <path id="패스_143" data-name="패스 143" d="M486.56,384.415l.427,3.331-1.794.171-.427-3.331-11.02,1.281-.256-2.221,20.843-2.477.256,2.221Zm3.588-6.15-.854-7.517-10.08,1.2a45.041,45.041,0,0,0,1.794,8.969l-1.794.513a51.747,51.747,0,0,1-1.794-9.824l-.171-1.708,13.668-1.623,1.11,9.738Z" transform="translate(-116.079 -209.639)" fill="#fff"/>
      <path id="패스_144" data-name="패스 144" d="M475.69,426.145l1.538-19.135,1.794.171-.683,8.371,4.271.342-.171,2.136-4.271-.342-.683,8.542Zm7.176-.94.6-7.517,9.311.769-.6,7.346-1.794-.171.427-5.125L485,420.08l-.427,5.3Zm8.2-8.2.427-4.955-5.723-.427a26.806,26.806,0,0,0,.171,5.211h-1.879a26.79,26.79,0,0,1,0-6.407l.085-1.2,9.311.769-.6,7.176Z" transform="translate(-116.314 -213.782)" fill="#fff"/>
      <path id="패스_145" data-name="패스 145" d="M480.6,452.142l-.769,3.246-1.794-.427.769-3.246-10.678-2.392.513-2.136,20.416,4.527-.513,2.136Zm3.844-12.814-1.2,5.382,5.211,1.2-.513,2.136-13.839-3.075,2.136-9.738,13.839,3.075-.513,2.136Zm-8.03,3.93,5.125,1.11,1.2-5.382-5.125-1.11Z" transform="translate(-115.506 -216.801)" fill="#fff"/>
      <path id="패스_146" data-name="패스 146" d="M459.046,475.628l.769-2.136,19.647,7.346-.769,2.136Zm9.226-13.668,2.136-.427c.513,6.151,3.075,9.995,7.517,12.13l2.734-7.261,1.623.6-3.5,9.311C473.055,474.176,468.955,469.9,468.272,461.96Z" transform="translate(-114.534 -219.614)" fill="#fff"/>
      <path id="패스_147" data-name="패스 147" d="M442.471,509.711,441.446,508c2.136-2.392,4.869-3.844,7.432-3.759-1.2-2.306-1.11-5.382.085-8.371l1.965.171c-1.538,3.673-1.281,7.346,1.11,8.8l.513.342-1.2,1.879-.513-.342C448.621,505.355,445.119,506.722,442.471,509.711Zm12.386,5.809-1.623,2.563-1.623-1.025,1.623-2.563-5.467-3.417,1.2-1.879,11.788,7.346-1.2,1.879Zm-1.452-7.944,5.04-8.2,8.03,4.955-5.04,8.2Zm5.467-5.382-2.734,4.442,4.955,3.075,2.734-4.442Z" transform="translate(-112.651 -223.287)" fill="#fff"/>
      <path id="패스_148" data-name="패스 148" d="M425.758,532.184l12.3-14.693,1.452,1.2-12.3,14.693Zm9.824,5.638c-2.734-2.221-2.392-6.321.513-9.653,2.819-3.417,6.748-4.442,9.4-2.135,2.734,2.221,2.392,6.321-.427,9.653S438.23,540.128,435.582,537.822Zm8.542-10.165c-1.879-1.623-4.613-.769-6.663,1.708s-2.392,5.3-.513,6.834,4.613.769,6.663-1.708C445.662,532.1,446,529.194,444.124,527.656Z" transform="translate(-110.973 -225.599)" fill="#fff"/>
      <path id="패스_149" data-name="패스 149" d="M405.862,550.583l14.18-12.814,1.281,1.367-6.236,5.638,2.477,2.734,4.527-4.1,4.442,4.955-9.14,8.2,1.965,2.221,9.14-8.286,1.2,1.367L418.932,561.6l-4.357-4.869,9.14-8.2-2.05-2.306-9.482,8.542-1.2-1.367,4.955-4.442-2.477-2.734-6.321,5.723Z" transform="translate(-108.845 -227.768)" fill="#fff"/>
      <path id="패스_150" data-name="패스 150" d="M374.583,571.7l16.4-9.824.94,1.538-7.176,4.271,2.563,4.271-1.879,1.11-2.563-4.271-7.346,4.442Zm4.955,6.663-.085-2.05a11.166,11.166,0,0,1,9.653.769,11.215,11.215,0,0,1,3.844-8.884l1.794,1.025c-3.075,2.648-4.613,7.176-2.9,9.995l.854,1.367-1.965,1.2-.854-1.367C388.08,577.678,383.3,576.909,379.538,578.361Z" transform="translate(-105.5 -230.347)" fill="#fff"/>
      <path id="패스_151" data-name="패스 151" d="M352.391,587.925l17.6-7.432.683,1.623-7.774,3.246.683,1.708,5.467-2.306,3.332,7.944-13.155,5.552-.683-1.623,11.105-4.7-.683-1.538-10.592,4.442-.683-1.538,10.592-4.442-.683-1.623-11.276,4.784-.683-1.623,5.809-2.392-.683-1.708-7.773,3.246Zm.256-5.3c-.854-2.05,1.11-4.1,5.382-5.894s7.176-1.794,8.03.256-1.11,4.186-5.382,5.98S353.5,584.679,352.647,582.629Zm11.276-4.784c-.427-1.025-2.306-.854-5.3.427s-4.357,2.477-3.929,3.5,2.306.94,5.3-.342S364.436,578.87,363.923,577.845Z" transform="translate(-103.126 -231.796)" fill="#fff"/>
      <path id="패스_152" data-name="패스 152" d="M329.367,599.292l-3.246.854-.513-1.794,3.246-.854-2.734-10.251,2.136-.6,5.382,20.245-2.136.6Zm4.015-4.186a5.22,5.22,0,0,1,10.08-2.648,4.86,4.86,0,0,1-3.759,6.065C336.713,599.292,334.065,597.925,333.381,595.106Zm.769,6.492,11.959-3.161.427,1.794-4.955,1.281.769,2.9-2.136.6-.769-2.9-4.869,1.281Zm7.261-8.628a3.088,3.088,0,0,0-5.98,1.538,2.969,2.969,0,0,0,3.759,2.136A2.864,2.864,0,0,0,341.411,592.97Z" transform="translate(-100.261 -232.997)" fill="#fff"/>
      <path id="패스_153" data-name="패스 153" d="M301.275,603.938l-3.331.427-.171-1.794,3.332-.427-1.281-10.934,2.221-.256,2.477,20.843-2.221.256Zm6.065,3.588,7.517-.854-1.2-10.08a45.036,45.036,0,0,0-8.969,1.794l-.513-1.794A59.094,59.094,0,0,1,314,594.712l1.708-.171,1.623,13.668L307.6,609.32Z" transform="translate(-97.284 -233.457)" fill="#fff"/>
      <path id="패스_154" data-name="패스 154" d="M259.6,593.154l19.135,1.538-.171,1.794-8.371-.683-.342,4.271-2.136-.171.342-4.271-8.542-.683Zm.94,7.176,7.517.6-.769,9.311-7.346-.6.171-1.794,5.125.427.427-5.809-5.3-.427Zm8.2,8.2,4.955.427.427-5.723a26.81,26.81,0,0,0-5.211.171v-1.879a26.786,26.786,0,0,1,6.407,0l1.2.085-.769,9.311-7.176-.6Z" transform="translate(-93.192 -233.692)" fill="#fff"/>
      <path id="패스_155" data-name="패스 155" d="M233.486,598.069l-3.246-.683.427-1.794,3.246.683,2.392-10.678,2.136.513-4.527,20.416-2.136-.513Zm12.728,3.844-5.382-1.2-1.2,5.211-2.136-.513,3.075-13.839,9.738,2.136-3.075,13.839-2.136-.513Zm-3.844-8.03-1.111,5.125,5.382,1.2,1.11-5.125Z" transform="translate(-90.061 -232.884)" fill="#fff"/>
      <path id="패스_156" data-name="패스 156" d="M209.751,576.605l2.136.769-7.346,19.647-2.136-.769Zm13.668,9.14.427,2.136c-6.15.513-9.995,3.161-12.13,7.517l7.261,2.734-.6,1.623-9.311-3.5C211.2,590.615,215.56,586.514,223.419,585.746Z" transform="translate(-87.083 -231.922)" fill="#fff"/>
      <path id="패스_157" data-name="패스 157" d="M169.726,572.427l-2.563-1.623.94-1.623,2.563,1.623,3.417-5.467,1.879,1.2L168.7,578.321l-1.879-1.2Zm7.944-1.452,8.2,5.04-4.955,8.03-8.2-5.04Zm-2.136-10.849,1.708-1.025c2.392,2.136,3.844,4.869,3.759,7.432,2.306-1.2,5.382-1.11,8.371.085l-.171,1.965c-3.673-1.538-7.346-1.2-8.8,1.11l-.342.513-1.879-1.111.342-.513C179.977,566.191,178.524,562.688,175.535,560.126Zm7.517,16.316-4.442-2.734-3.075,4.954,4.442,2.734Z" transform="translate(-83.277 -230.05)" fill="#fff"/>
      <path id="패스_158" data-name="패스 158" d="M147.545,553.151c2.221-2.734,6.321-2.392,9.653.427,3.417,2.819,4.442,6.748,2.221,9.4-2.221,2.734-6.321,2.392-9.653-.427C146.349,559.815,145.239,555.885,147.545,553.151Zm10.165,8.542c1.623-1.879.769-4.613-1.708-6.663s-5.3-2.392-6.834-.513-.769,4.613,1.708,6.663C153.268,563.317,156.173,563.573,157.71,561.694Zm-4.527-18.281,14.693,12.3-1.2,1.452-14.693-12.3Z" transform="translate(-81.086 -228.372)" fill="#fff"/>
      <path id="패스_159" data-name="패스 159" d="M134.5,523.517l12.814,14.18-1.367,1.281-5.638-6.236-2.734,2.477,4.1,4.527-4.955,4.442-8.286-9.14-2.221,1.965,8.286,9.14-1.367,1.2-9.738-10.763,4.869-4.357,8.286,9.14,2.306-2.05-8.542-9.482,1.367-1.2,4.442,4.954,2.734-2.477-5.723-6.321Z" transform="translate(-78.633 -226.244)" fill="#fff"/>
      <path id="패스_160" data-name="패스 160" d="M107.106,497.193l2.05-.085a10.883,10.883,0,0,1-.769,9.653c3.161-.342,6.578,1.281,8.884,3.759l-1.025,1.794c-2.648-3.075-7.176-4.613-9.995-2.9l-1.367.854-1.2-1.965,1.367-.854C107.79,505.735,108.559,501.037,107.106,497.193Zm6.578-4.955,9.909,16.4-1.538.94L117.7,502.4l-4.271,2.563-1.111-1.879,4.271-2.563-4.442-7.346Z" transform="translate(-76.525 -222.898)" fill="#fff"/>
      <path id="패스_161" data-name="패스 161" d="M97.095,470.046l7.517,17.6-1.623.683-3.332-7.774-1.708.683,2.306,5.467-7.944,3.332L86.759,476.88l1.623-.683,4.7,11.105,1.538-.683L90.09,476.026l1.538-.683,4.527,10.592,1.623-.683-4.784-11.19,1.623-.683,2.477,5.809L98.8,478.5l-3.332-7.774Zm5.382.256c2.05-.854,4.186,1.11,5.894,5.3,1.879,4.271,1.794,7.176-.256,8.03s-4.186-1.11-5.98-5.382C100.341,474.061,100.426,471.157,102.477,470.3Zm4.784,11.361c1.025-.427.854-2.306-.427-5.3s-2.477-4.357-3.5-3.929-.94,2.306.342,5.3S106.235,482.091,107.26,481.664Z" transform="translate(-74.714 -220.525)" fill="#fff"/>
      <path id="패스_162" data-name="패스 162" d="M85.968,447.022l-.854-3.246,1.794-.513.854,3.246,10.251-2.734.6,2.136-20.245,5.467-.6-2.136Zm-2.221,4.784,3.161,11.959-1.708.513-1.367-4.955-2.9.769-.6-2.136,2.9-.769-1.281-4.869Zm6.407-.769a5.22,5.22,0,1,1-3.417,6.321C86.053,454.453,87.42,451.805,90.153,451.036Zm2.136,8.03a3.088,3.088,0,0,0-1.538-5.98,2.969,2.969,0,0,0-2.136,3.759A2.876,2.876,0,0,0,92.289,459.066Z" transform="translate(-73.752 -217.66)" fill="#fff"/>
      <path id="패스_163" data-name="패스 163" d="M81.3,419.015l-.427-3.332,1.794-.256.427,3.331,11.02-1.281.256,2.221-20.843,2.477-.256-2.221Zm-3.588,6.065.94,7.517,10.08-1.2a45.038,45.038,0,0,0-1.794-8.969l1.794-.513a51.466,51.466,0,0,1,1.879,9.824l.171,1.708-13.668,1.623-1.2-9.738Z" transform="translate(-73.271 -214.683)" fill="#fff"/>
    </g>
  </g>
</svg>
